<svg width="58" height="58" viewBox="0 0 58 58" fill="none" xmlns="http://www.w3.org/2000/svg">
<g filter="url(#filter0_d_619_92)">
<circle cx="29" cy="25" r="25" transform="rotate(-90 29 25)" fill="#E2E2E2"/>
</g>
<path d="M16 18.4995C16 18.4995 15.9987 12.9994 16.4985 12.4995C16.9984 11.9996 22.4985 12 22.4985 12" stroke="black" stroke-width="2" stroke-linecap="round"/>
<path d="M35.4976 12C35.4976 12 40.9977 11.9987 41.4976 12.4985C41.9974 12.9984 41.9971 18.4985 41.9971 18.4985" stroke="black" stroke-width="2" stroke-linecap="round"/>
<path d="M22.4995 37.9971C22.4995 37.9971 16.9994 37.9984 16.4995 37.4985C15.9996 36.9987 16 31.4985 16 31.4985" stroke="black" stroke-width="2" stroke-linecap="round"/>
<path d="M41.9971 31.4985C41.9971 31.4985 41.9984 36.9987 41.4985 37.4985C40.9987 37.9984 35.4985 37.998 35.4985 37.998" stroke="black" stroke-width="2" stroke-linecap="round"/>
<defs>
<filter id="filter0_d_619_92" x="0" y="0" width="58" height="58" filterUnits="userSpaceOnUse" color-interpolation-filters="sRGB">
<feFlood flood-opacity="0" result="BackgroundImageFix"/>
<feColorMatrix in="SourceAlpha" type="matrix" values="0 0 0 0 0 0 0 0 0 0 0 0 0 0 0 0 0 0 127 0" result="hardAlpha"/>
<feOffset dy="4"/>
<feGaussianBlur stdDeviation="2"/>
<feComposite in2="hardAlpha" operator="out"/>
<feColorMatrix type="matrix" values="0 0 0 0 0 0 0 0 0 0 0 0 0 0 0 0 0 0 0.25 0"/>
<feBlend mode="normal" in2="BackgroundImageFix" result="effect1_dropShadow_619_92"/>
<feBlend mode="normal" in="SourceGraphic" in2="effect1_dropShadow_619_92" result="shape"/>
</filter>
</defs>
</svg>
