<svg width="58" height="58" viewBox="0 0 58 58" fill="none" xmlns="http://www.w3.org/2000/svg">
<g filter="url(#filter0_d_527_2)">
<circle cx="29" cy="25" r="25" transform="rotate(-90 29 25)" fill="#E2E2E2"/>
<path d="M26.4365 14.3477C26.4365 13.5273 26.6904 12.873 27.1982 12.3848C27.7061 11.8965 28.3115 11.6523 29.0146 11.6523C30.6943 11.6523 31.5342 12.5508 31.5342 14.3477C31.5342 15.1875 31.2754 15.8564 30.7578 16.3545C30.25 16.8428 29.6689 17.0869 29.0146 17.0869C28.1943 17.0869 27.5596 16.8525 27.1104 16.3838C26.6611 15.9053 26.4365 15.2266 26.4365 14.3477ZM33.5703 33.0977V35.5H24.5762V33.0977L26.9785 32.3506V22.5947L24.5762 21.8477V19.4453L31.4756 19.2988V32.3506L33.5703 33.0977Z" fill="black"/>
</g>
<defs>
<filter id="filter0_d_527_2" x="0" y="0" width="58" height="58" filterUnits="userSpaceOnUse" color-interpolation-filters="sRGB">
<feFlood flood-opacity="0" result="BackgroundImageFix"/>
<feColorMatrix in="SourceAlpha" type="matrix" values="0 0 0 0 0 0 0 0 0 0 0 0 0 0 0 0 0 0 127 0" result="hardAlpha"/>
<feOffset dy="4"/>
<feGaussianBlur stdDeviation="2"/>
<feComposite in2="hardAlpha" operator="out"/>
<feColorMatrix type="matrix" values="0 0 0 0 0 0 0 0 0 0 0 0 0 0 0 0 0 0 0.25 0"/>
<feBlend mode="normal" in2="BackgroundImageFix" result="effect1_dropShadow_527_2"/>
<feBlend mode="normal" in="SourceGraphic" in2="effect1_dropShadow_527_2" result="shape"/>
</filter>
</defs>
</svg>
