<svg width="171" height="171" viewBox="0 0 171 171" fill="none" xmlns="http://www.w3.org/2000/svg">
<path d="M85.1635 50.6726L85.1547 0.0149229M85.1843 170.013L85.1755 119.356M119.356 85.1636L170.013 85.1548M0.0148623 85.1844L50.6726 85.1756M25.4885 24.5772L60.9241 60.6219M109.406 60.9242L145.762 25.4886M24.5771 144.54L60.6218 109.104M98.2707 53.3339L117.613 6.51409M52.7044 163.633L72.0464 116.813M6.39601 52.7038L53.2158 72.0458M97.9609 116.759L116.823 163.893M53.0886 6.42274L72.069 53.2698M116.759 72.0684L163.894 53.2067M6.42332 116.941L53.2704 97.9603M78.2397 51.3474L68.0203 1.73122M102.315 168.235L92.0956 118.618M118.682 78.2385L168.299 68.0191M1.79513 102.314L51.4113 92.0944M14.5297 37.816L56.5033 65.9783M104.051 56.5021L132.518 14.4658M37.8172 155.5L65.9795 113.526M91.6126 51.3126L101.12 1.55508M69.214 168.533L78.7217 118.775M118.717 91.6127L168.474 101.12M1.49661 69.2142L51.2541 78.7219M104.093 113.498L132.068 155.863M37.9023 14.4714L65.9357 56.5312M113.498 65.9359L155.863 37.9607M14.4712 132.127L56.531 104.094" stroke="black" stroke-width="2" stroke-miterlimit="10"/>
</svg>
