<svg width="289" height="263" viewBox="0 0 289 263" fill="none" xmlns="http://www.w3.org/2000/svg">
<path d="M144.163 50.6726L144.155 0.0149229M144.184 170.013L144.175 119.356M178.356 85.1636L229.013 85.1548M59.0149 85.1844L109.673 85.1756M84.4885 24.5772L119.924 60.6219M168.406 60.9242L204.762 25.4886M83.5771 144.54L119.622 109.104M157.271 53.3339L176.613 6.51409M111.704 163.633L131.046 116.813M65.396 52.7038L112.216 72.0458M156.961 116.759L175.823 163.893M112.089 6.42274L131.069 53.2698M175.759 72.0684L222.894 53.2067M65.4233 116.941L112.27 97.9603M137.24 51.3474L127.02 1.73122M161.315 168.235L151.096 118.618M177.682 78.2385L227.299 68.0191M60.7951 102.314L110.411 92.0944M73.5297 37.816L115.503 65.9783M163.051 56.5021L191.518 14.4658M96.8172 155.5L124.98 113.526M150.613 51.3126L160.12 1.55508M128.214 168.533L137.722 118.775M177.717 91.6127L227.474 101.12M60.4966 69.2142L110.254 78.7219M163.093 113.498L191.068 155.863M96.9023 14.4714L124.936 56.5312M172.498 65.9359L214.863 37.9607M73.4712 132.127L115.531 104.094" stroke="white" stroke-width="2" stroke-miterlimit="10"/>
<path d="M24.81 231.05C27.75 231.61 29.97 232.84 31.47 234.74C32.99 236.62 33.75 239.04 33.75 242C33.75 244.74 33.11 247.02 31.83 248.84C30.55 250.66 28.52 252.04 25.74 252.98C22.98 253.9 19.36 254.36 14.88 254.36C11.28 254.36 7.89 254.16 4.71 253.76V210.26C8.35 209.52 12.13 209.15 16.05 209.15C19.89 209.15 23.01 209.58 25.41 210.44C27.83 211.28 29.61 212.56 30.75 214.28C31.91 216 32.49 218.2 32.49 220.88C32.49 223.38 31.86 225.54 30.6 227.36C29.36 229.18 27.43 230.41 24.81 231.05ZM16.41 212.93C13.89 212.93 11.54 213.12 9.36 213.5V229.28H16.95C19.65 229.28 21.8 228.97 23.4 228.35C25.02 227.73 26.18 226.83 26.88 225.65C27.58 224.45 27.93 222.93 27.93 221.09C27.93 219.13 27.55 217.56 26.79 216.38C26.03 215.2 24.81 214.33 23.13 213.77C21.47 213.21 19.23 212.93 16.41 212.93ZM15.84 250.58C19.12 250.58 21.74 250.27 23.7 249.65C25.66 249.03 27.07 248.09 27.93 246.83C28.79 245.57 29.22 243.93 29.22 241.91C29.22 238.95 28.31 236.75 26.49 235.31C24.69 233.87 21.85 233.15 17.97 233.15H9.36V250.25C11.12 250.47 13.28 250.58 15.84 250.58ZM38.1108 254V209.6H42.8508V249.86H63.1908V254H38.1108ZM65.7694 254V209.6H70.5094V254H65.7694ZM104.969 209.6H109.469V254H104.549L82.0491 217.04V254H77.5491V209.6H82.4691L104.969 246.56V209.6ZM125.966 254.36C122.906 254.36 119.756 254.17 116.516 253.79V210.2C120.296 209.5 123.836 209.15 127.136 209.15C134.116 209.15 139.346 211 142.826 214.7C146.306 218.4 148.046 224.1 148.046 231.8C148.046 237.06 147.226 241.35 145.586 244.67C143.946 247.99 141.496 250.44 138.236 252.02C134.996 253.58 130.906 254.36 125.966 254.36ZM126.896 250.28C130.576 250.28 133.606 249.66 135.986 248.42C138.366 247.18 140.146 245.2 141.326 242.48C142.526 239.76 143.126 236.2 143.126 231.8C143.126 227.44 142.556 223.89 141.416 221.15C140.276 218.41 138.546 216.4 136.226 215.12C133.906 213.84 130.936 213.2 127.316 213.2C125.596 213.2 123.576 213.37 121.256 213.71V249.98C122.856 250.18 124.736 250.28 126.896 250.28ZM172.519 254.54C170.859 254.54 169.149 254.4 167.389 254.12C165.629 253.84 163.979 253.43 162.439 252.89V248.78C164.119 249.34 165.829 249.77 167.569 250.07C169.309 250.35 170.989 250.49 172.609 250.49C179.309 250.49 182.659 247.78 182.659 242.36C182.659 240.84 182.389 239.57 181.849 238.55C181.329 237.53 180.479 236.66 179.299 235.94C178.139 235.22 176.549 234.55 174.529 233.93L172.279 233.27C168.759 232.23 166.129 230.74 164.389 228.8C162.649 226.84 161.779 224.31 161.779 221.21C161.779 217.35 163.059 214.36 165.619 212.24C168.179 210.12 171.919 209.06 176.839 209.06C178.379 209.06 179.919 209.17 181.459 209.39C183.019 209.59 184.399 209.88 185.599 210.26V214.37C182.939 213.53 180.059 213.11 176.959 213.11C170.039 213.11 166.579 215.72 166.579 220.94C166.579 222.4 166.829 223.63 167.329 224.63C167.829 225.61 168.629 226.46 169.729 227.18C170.829 227.88 172.329 228.52 174.229 229.1L176.449 229.76C180.209 230.86 182.989 232.4 184.789 234.38C186.589 236.34 187.489 238.9 187.489 242.06C187.489 244.7 186.899 246.95 185.719 248.81C184.559 250.67 182.859 252.09 180.619 253.07C178.379 254.05 175.679 254.54 172.519 254.54ZM191.758 210.14C195.358 209.48 198.868 209.15 202.288 209.15C208.008 209.15 212.288 210.39 215.128 212.87C217.988 215.33 219.418 219.14 219.418 224.3C219.418 234.38 213.498 239.42 201.658 239.42C200.078 239.42 198.358 239.34 196.498 239.18V254H191.758V210.14ZM201.808 235.52C206.248 235.52 209.508 234.62 211.588 232.82C213.668 231.02 214.708 228.21 214.708 224.39C214.708 220.43 213.728 217.55 211.768 215.75C209.808 213.93 206.758 213.02 202.618 213.02C200.458 213.02 198.418 213.17 196.498 213.47V235.22C197.938 235.42 199.708 235.52 201.808 235.52ZM239.58 254.54C234.14 254.54 229.92 252.71 226.92 249.05C223.94 245.39 222.45 239.64 222.45 231.8C222.45 223.96 223.94 218.21 226.92 214.55C229.92 210.89 234.14 209.06 239.58 209.06C245 209.06 249.21 210.9 252.21 214.58C255.21 218.24 256.71 223.98 256.71 231.8C256.71 239.62 255.21 245.37 252.21 249.05C249.21 252.71 245 254.54 239.58 254.54ZM239.58 250.49C243.52 250.49 246.54 249.06 248.64 246.2C250.74 243.34 251.79 238.59 251.79 231.95C251.79 225.17 250.74 220.34 248.64 217.46C246.54 214.56 243.52 213.11 239.58 213.11C235.64 213.11 232.62 214.54 230.52 217.4C228.42 220.24 227.37 224.99 227.37 231.65C227.37 236.27 227.86 239.97 228.84 242.75C229.82 245.51 231.2 247.49 232.98 248.69C234.78 249.89 236.98 250.49 239.58 250.49ZM269.3 254V213.74H255.41V209.6H287.96V213.74H274.04V254H269.3Z" fill="white"/>
</svg>
