<svg width="468" height="468" viewBox="0 0 468 468" fill="none" xmlns="http://www.w3.org/2000/svg">
<circle cx="234" cy="234" r="234" fill="white" fill-opacity="0.15"/>
<path d="M233.805 146.117L233.783 17.3284M233.858 449.522L233.836 320.733M320.733 233.805L449.522 233.782M17.3288 233.858L146.118 233.835M82.0914 79.774L172.181 171.412M295.439 172.18L387.866 82.091M79.7743 384.759L171.412 294.67M267.128 152.883L316.302 33.8515M151.283 433.301L200.457 314.269M33.5518 151.281L152.583 200.455M266.34 314.131L314.293 433.962M152.26 33.6193L200.514 152.72M314.133 200.512L433.964 152.56M33.6213 314.593L152.722 266.338M216.203 147.833L190.221 21.6918M277.41 444.999L251.429 318.858M319.021 216.199L445.162 190.218M21.8548 277.407L147.996 251.425M54.2303 113.431L160.941 185.029M281.825 160.938L354.196 54.0673M113.435 412.624L185.033 305.913M250.201 147.744L274.373 21.244M193.256 445.757L217.428 319.257M319.108 250.201L445.609 274.373M21.0959 193.256L147.596 217.428M281.931 305.841L353.053 413.547M113.651 54.0816L184.922 161.012M305.841 184.922L413.547 113.799M54.0817 353.201L161.012 281.931" stroke="black" stroke-width="5" stroke-miterlimit="10" stroke-linecap="round"/>
</svg>
