<svg width="307" height="307" viewBox="0 0 307 307" fill="none" xmlns="http://www.w3.org/2000/svg">
<path d="M153.39 91.2573L153.374 8.18082e-05M153.428 306.244L153.412 214.987M214.986 153.391L306.243 153.375M-0.000570089 153.429L91.2567 153.413M45.8889 44.2478L109.724 109.181M197.063 109.725L262.555 45.8896M44.2471 260.354L109.18 196.519M177.002 96.0514L211.846 11.708M94.917 294.75L129.76 210.407M11.4947 94.9165L95.8382 129.76M176.444 210.308L210.422 295.218M95.6091 11.5434L129.801 95.9361M210.309 129.801L295.219 95.8224M11.5439 210.636L95.9366 176.444M140.918 92.4729L122.508 3.0919M184.288 303.039L165.878 213.658M213.773 140.916L303.154 122.506M3.2065 184.286L92.5875 165.877M26.1471 68.0968L101.76 118.83M187.416 101.759L238.697 26.0325M68.0984 280.099L118.831 204.485M165.008 92.4101L182.136 2.7746M124.658 303.576L141.786 213.941M213.835 165.009L303.47 182.137M2.66873 124.659L92.3043 141.787M187.492 204.434L237.887 280.753M68.2516 26.0426L118.752 101.811M204.434 118.753L280.752 68.3575M26.0418 237.993L101.81 187.492" stroke="white" stroke-width="2" stroke-miterlimit="10"/>
</svg>
